<svg width="16" height="16" viewBox="0 0 16 16" fill="none" xmlns="http://www.w3.org/2000/svg">
<mask id="mask0_680_2648" style="mask-type:alpha" maskUnits="userSpaceOnUse" x="0" y="0" width="16" height="16">
<rect width="16" height="16" fill="#D9D9D9"/>
</mask>
<g mask="url(#mask0_680_2648)">
<path d="M8 14C7.77168 14 7.55416 13.9573 7.34742 13.8719C7.14058 13.7866 6.95732 13.6633 6.79763 13.502C6.48016 13.1886 6.20789 12.9836 5.98084 12.8868C5.75368 12.7901 5.413 12.7417 4.95879 12.7417C4.48637 12.7417 4.08484 12.5764 3.75421 12.2458C3.42358 11.9152 3.25826 11.5136 3.25826 11.0412C3.25826 10.5911 3.20974 10.2513 3.11268 10.0218C3.01563 9.79237 2.81074 9.51921 2.498 9.20237C2.33526 9.03963 2.21158 8.85505 2.12695 8.64863C2.04232 8.44221 2 8.22642 2 8.00126C2 7.7761 2.04232 7.55989 2.12695 7.35263C2.21158 7.14537 2.33526 6.96037 2.498 6.79763C2.81074 6.483 3.01563 6.21179 3.11268 5.984C3.20974 5.75611 3.25826 5.41437 3.25826 4.95879C3.25826 4.48637 3.42358 4.08484 3.75421 3.75421C4.08484 3.42358 4.48637 3.25826 4.95879 3.25826C5.4089 3.25826 5.74868 3.20974 5.97816 3.11268C6.20763 3.01563 6.48079 2.81074 6.79763 2.498C6.95763 2.33674 7.14116 2.21342 7.34821 2.12805C7.55526 2.04268 7.77174 2 7.99763 2C8.22353 2 8.44011 2.04232 8.64737 2.12695C8.85463 2.21158 9.03963 2.33526 9.20237 2.498C9.517 2.81074 9.78821 3.01563 10.016 3.11268C10.2439 3.20974 10.5856 3.25826 11.0412 3.25826C11.5136 3.25826 11.9152 3.42358 12.2458 3.75421C12.5764 4.08484 12.7417 4.48637 12.7417 4.95879C12.7417 5.4089 12.7903 5.74868 12.8873 5.97816C12.9844 6.20763 13.1893 6.48079 13.502 6.79763C13.6647 6.96037 13.7884 7.14495 13.8731 7.35137C13.9577 7.55779 14 7.77358 14 7.99874C14 8.22389 13.9577 8.44011 13.8731 8.64737C13.7884 8.85463 13.6647 9.03963 13.502 9.20237C13.1886 9.51984 12.9836 9.79211 12.8868 10.0192C12.7901 10.2463 12.7417 10.587 12.7417 11.0412C12.7417 11.5136 12.5764 11.9152 12.2458 12.2458C11.9152 12.5764 11.5136 12.7417 11.0412 12.7417C10.5911 12.7417 10.2513 12.7903 10.0218 12.8873C9.79237 12.9844 9.51921 13.1893 9.20237 13.502C9.04268 13.6633 8.85942 13.7866 8.65258 13.8719C8.44584 13.9573 8.22832 14 8 14ZM8.00079 13.0526C8.10068 13.0526 8.19821 13.0322 8.29337 12.9914C8.38853 12.9504 8.46847 12.8976 8.53321 12.8328C8.93237 12.4296 9.30958 12.1557 9.66484 12.0112C10.02 11.8666 10.4788 11.7944 11.0412 11.7944C11.2546 11.7944 11.4335 11.7222 11.5779 11.5779C11.7222 11.4335 11.7944 11.2546 11.7944 11.0412C11.7944 10.4753 11.8666 10.0166 12.0112 9.66516C12.1557 9.31379 12.4275 8.93647 12.8267 8.53321C12.9773 8.38258 13.0526 8.20484 13.0526 8C13.0526 7.79516 12.9794 7.61942 12.8328 7.47279C12.4296 7.06963 12.1557 6.69042 12.0112 6.33516C11.8666 5.98 11.7944 5.52121 11.7944 4.95879C11.7944 4.74542 11.7222 4.56653 11.5779 4.42211C11.4335 4.27779 11.2546 4.20563 11.0412 4.20563C10.4694 4.20563 10.0085 4.13437 9.65853 3.99184C9.30853 3.84921 8.93142 3.57637 8.52721 3.17332C8.46237 3.10847 8.38237 3.05463 8.28721 3.01179C8.19205 2.96884 8.09632 2.94737 8 2.94737C7.90368 2.94737 7.80695 2.96932 7.70979 3.01321C7.61253 3.05721 7.53153 3.11058 7.46679 3.17332C7.06763 3.57247 6.69042 3.84432 6.33516 3.98884C5.98 4.13337 5.52121 4.20563 4.95879 4.20563C4.74542 4.20563 4.56653 4.27779 4.42211 4.42211C4.27779 4.56653 4.20563 4.74542 4.20563 4.95879C4.20563 5.52879 4.13337 5.98947 3.98884 6.34084C3.84432 6.69232 3.57042 7.06963 3.16716 7.47279C3.02063 7.61942 2.94737 7.79516 2.94737 8C2.94737 8.20484 3.02063 8.38258 3.16716 8.53321C3.57042 8.93647 3.84432 9.31442 3.98884 9.66705C4.13337 10.0197 4.20563 10.4777 4.20563 11.0412C4.20563 11.2546 4.27779 11.4335 4.42211 11.5779C4.56653 11.7222 4.74542 11.7944 4.95879 11.7944C5.52921 11.7944 5.989 11.8666 6.33816 12.0112C6.68732 12.1557 7.06553 12.4296 7.47279 12.8328C7.53763 12.8976 7.61684 12.9504 7.71042 12.9914C7.80411 13.0322 7.90089 13.0526 8.00079 13.0526ZM9.53758 10.3138C9.75547 10.3138 9.93932 10.2389 10.0891 10.0891C10.2389 9.93932 10.3138 9.75547 10.3138 9.53758C10.3138 9.31958 10.2389 9.13432 10.0891 8.98179C9.93932 8.82926 9.75547 8.753 9.53758 8.753C9.31958 8.753 9.13432 8.82926 8.98179 8.98179C8.82926 9.13432 8.753 9.31958 8.753 9.53758C8.753 9.75547 8.82926 9.93932 8.98179 10.0891C9.13432 10.2389 9.31958 10.3138 9.53758 10.3138ZM6.43195 10.2276L10.2276 6.43811L9.56189 5.77242L5.77242 9.56805L6.43195 10.2276ZM7.01821 7.01821C7.17074 6.86568 7.247 6.68042 7.247 6.46242C7.247 6.24453 7.17074 6.06068 7.01821 5.91089C6.86568 5.76111 6.68042 5.68621 6.46242 5.68621C6.24453 5.68621 6.06068 5.76111 5.91089 5.91089C5.76111 6.06068 5.68621 6.24453 5.68621 6.46242C5.68621 6.68042 5.76111 6.86568 5.91089 7.01821C6.06068 7.17074 6.24453 7.247 6.46242 7.247C6.68042 7.247 6.86568 7.17074 7.01821 7.01821Z" fill="#252525"/>
</g>
</svg>
