<svg width="39" height="39" viewBox="0 0 39 39" fill="none" xmlns="http://www.w3.org/2000/svg">
<path d="M8.61254 34.9375C7.80004 34.9375 7.10941 34.6531 6.54066 34.0844C6.26448 33.8156 6.0463 33.4931 5.89957 33.1368C5.75284 32.7804 5.68068 32.3978 5.68754 32.0125V14.2594C5.23318 14.0245 4.84278 13.6826 4.55004 13.2632C4.22234 12.8088 4.05125 12.2602 4.06254 11.7V7.8C4.06254 6.9875 4.34691 6.29688 4.91566 5.72813C5.48441 5.15938 6.17504 4.875 6.98754 4.875H32.0125C32.825 4.875 33.5157 5.15938 34.0844 5.72813C34.6532 6.29688 34.9375 6.9875 34.9375 7.8V11.7C34.9375 12.2964 34.775 12.8164 34.45 13.2632C34.125 13.7101 33.7464 14.0432 33.3125 14.2594V32.0125C33.3125 32.825 33.0282 33.5156 32.4594 34.0844C31.8907 34.6531 31.2 34.9375 30.3875 34.9375H8.61254ZM8.12504 14.625V32.0125C8.12504 32.1474 8.17379 32.2628 8.26804 32.3586C8.31279 32.4044 8.36643 32.4406 8.42568 32.4649C8.48492 32.4892 8.54851 32.5012 8.61254 32.5H30.3875C30.4518 32.5011 30.5156 32.4891 30.5751 32.4648C30.6346 32.4405 30.6885 32.4044 30.7337 32.3586C30.7794 32.3135 30.8156 32.2596 30.8399 32.2001C30.8642 32.1406 30.8761 32.0768 30.875 32.0125V14.625H8.12504ZM32.0125 12.1875C32.0769 12.1886 32.1409 12.1765 32.2004 12.1519C32.2599 12.1273 32.3138 12.0907 32.3587 12.0445C32.4045 11.9998 32.4406 11.9461 32.465 11.8869C32.4893 11.8276 32.5012 11.764 32.5 11.7V7.8C32.5011 7.73574 32.4892 7.67192 32.4649 7.61243C32.4406 7.55293 32.4044 7.49899 32.3587 7.45387C32.3135 7.4081 32.2596 7.37196 32.2001 7.34766C32.1406 7.32336 32.0768 7.3114 32.0125 7.3125H6.98754C6.92351 7.31133 6.85992 7.32327 6.80068 7.34758C6.74143 7.3719 6.68779 7.40807 6.64304 7.45387C6.59681 7.49873 6.56027 7.55259 6.53568 7.61212C6.51108 7.67165 6.49895 7.7356 6.50004 7.8V11.7C6.50004 11.8349 6.54879 11.9503 6.64304 12.0445C6.68753 12.0908 6.74109 12.1273 6.80037 12.1519C6.85965 12.1765 6.92337 12.1887 6.98754 12.1875H32.0125ZM16.1688 22.2625H22.8313C22.9946 22.2669 23.157 22.2366 23.3077 22.1736C23.4584 22.1106 23.594 22.0162 23.7055 21.8969C23.9286 21.6692 24.0525 21.3625 24.05 21.0437C24.0551 20.8823 24.0271 20.7214 23.9679 20.5711C23.9087 20.4208 23.8194 20.2841 23.7055 20.1695C23.5909 20.0556 23.4542 19.9664 23.3039 19.9071C23.1536 19.8479 22.9928 19.8199 22.8313 19.825H16.1688C16.0074 19.82 15.8467 19.8482 15.6966 19.9077C15.5465 19.9672 15.4101 20.0568 15.296 20.1709C15.1818 20.2851 15.0922 20.4214 15.0327 20.5716C14.9732 20.7217 14.9451 20.8824 14.95 21.0437C14.95 21.3687 15.0654 21.6531 15.2962 21.8969C15.5253 22.1406 15.8162 22.2625 16.1688 22.2625Z" fill="#990100"/>
</svg>
