<svg width="20" height="22" viewBox="0 0 20 22" fill="none" xmlns="http://www.w3.org/2000/svg">
<path d="M1.83691 12.8359C1.64767 12.8366 1.46214 12.7835 1.30186 12.6829C1.14158 12.5823 1.01314 12.4383 0.931456 12.2676C0.849772 12.0969 0.818199 11.9065 0.840406 11.7186C0.862612 11.5306 0.937687 11.3529 1.05691 11.2059L10.9569 1.00592C11.0312 0.920199 11.1324 0.862274 11.2439 0.84165C11.3554 0.821027 11.4706 0.83893 11.5706 0.892421C11.6706 0.945913 11.7495 1.03181 11.7942 1.13603C11.839 1.24024 11.847 1.35657 11.8169 1.46592L9.89691 7.48592C9.84029 7.63744 9.82128 7.80044 9.8415 7.96093C9.86172 8.12141 9.92057 8.2746 10.013 8.40734C10.1054 8.54009 10.2287 8.64843 10.3722 8.72308C10.5157 8.79772 10.6752 8.83644 10.8369 8.83592H17.8369C18.0261 8.83527 18.2117 8.88834 18.372 8.98894C18.5322 9.08955 18.6607 9.23356 18.7424 9.40426C18.824 9.57496 18.8556 9.76533 18.8334 9.95326C18.8112 10.1412 18.7361 10.319 18.6169 10.4659L8.71691 20.6659C8.64264 20.7516 8.54145 20.8096 8.42992 20.8302C8.3184 20.8508 8.20318 20.8329 8.10318 20.7794C8.00317 20.7259 7.92432 20.64 7.87957 20.5358C7.83482 20.4316 7.82683 20.3153 7.85691 20.2059L9.77691 14.1859C9.83352 14.0344 9.85254 13.8714 9.83232 13.7109C9.8121 13.5504 9.75325 13.3972 9.66082 13.2645C9.56839 13.1317 9.44513 13.0234 9.30163 12.9488C9.15813 12.8741 8.99866 12.8354 8.83691 12.8359H1.83691Z" fill="white" fill-opacity="0.3" stroke="white" stroke-width="1.66667" stroke-linecap="round" stroke-linejoin="round"/>
</svg>
